<?xml version="1.0" encoding="UTF-8"?>
<svg version="1.1" xmlns="http://www.w3.org/2000/svg" width="200" height="200">
<path d="M0 0 C66 0 132 0 200 0 C200 66 200 132 200 200 C134 200 68 200 0 200 C0 134 0 68 0 0 Z " fill="#212B39" transform="translate(0,0)"/>
<path d="M0 0 C66 0 132 0 200 0 C200 36.63 200 73.26 200 111 C198.68 111.33 197.36 111.66 196 112 C192.73441332 115.36163335 191.25256851 118.51162951 190 123 C189.236875 122.360625 188.47375 121.72125 187.6875 121.0625 C185.11753287 118.85767219 185.11753287 118.85767219 182 118 C183.65296434 122.09305456 185.13546142 125.58983503 188 129 C187.01 130.32 186.02 131.64 185 133 C184.401875 132.195625 183.80375 131.39125 183.1875 130.5625 C181.19052724 127.77672016 181.19052724 127.77672016 178 127 C178.27714844 127.68707031 178.55429688 128.37414062 178.83984375 129.08203125 C179.20207031 129.98308594 179.56429687 130.88414062 179.9375 131.8125 C180.29714844 132.70582031 180.65679687 133.59914062 181.02734375 134.51953125 C181.73613486 136.3270909 182.3860247 138.15807409 183 140 C182.34 140.66 181.68 141.32 181 142 C180.731875 141.195625 180.46375 140.39125 180.1875 139.5625 C179.795625 138.716875 179.40375 137.87125 179 137 C178.01 136.67 177.02 136.34 176 136 C176.33 140.95 176.66 145.9 177 151 C176.34 151.33 175.68 151.66 175 152 C175 125.6 175 99.2 175 72 C173.68 71.34 172.36 70.68 171 70 C165.11662473 65.99262586 159.4917008 61.6193281 153.875 57.25 C149.01661755 53.47343772 144.04886505 49.8920149 139 46.375 C132.17409809 41.60977742 125.49831948 36.66786002 118.875 31.625 C117.9984375 30.95903809 117.121875 30.29307617 116.21875 29.60693359 C111.3449155 25.87751292 106.61790599 22.04223207 102 18 C96.88321618 19.56071784 93.38830736 22.74118433 89.375 26.125 C83.07777223 31.33652346 76.68236708 36.28747032 70 41 C67.68558976 42.64315507 65.37375765 44.28991422 63.0625 45.9375 C62.46953125 46.3598291 61.8765625 46.7821582 61.265625 47.21728516 C54.89032545 51.77032321 48.63635818 56.48144873 42.39599609 61.21728516 C41.31111205 62.04026711 40.22550545 62.86229749 39.13916016 63.68334961 C37.65501951 64.80507313 36.17313658 65.92978202 34.69140625 67.0546875 C32 69 32 69 29.3730011 70.22737122 C26.7216354 71.80771133 26.7216354 71.80771133 26.36076355 74.82841492 C26.35410172 75.9764711 26.34743988 77.12452728 26.34057617 78.30737305 C26.32093307 79.60849533 26.30128998 80.90961761 26.28105164 82.25016785 C26.28449512 83.67068619 26.28848026 85.09120332 26.29296875 86.51171875 C26.27985487 87.96476821 26.26455159 89.41779943 26.24714661 90.87080383 C26.20724603 94.69314155 26.19710305 98.51500299 26.19311523 102.33752441 C26.1837931 106.2388356 26.14638553 110.13986583 26.11132812 114.04101562 C26.04670112 121.69401268 26.01350323 129.34672391 26 137 C25.505 136.01 25.505 136.01 25 135 C21.9890638 137.0072908 21.36983503 137.83884224 20 141 C19.34 140.67 18.68 140.34 18 140 C18.268125 139.34 18.53625 138.68 18.8125 138 C20.25705047 134.35060933 21.62871178 130.67754567 23 127 C19.63408134 128.44253657 17.48952921 130.33264727 15 133 C14.25 130.25 14.25 130.25 14 127 C15.875 124.9375 15.875 124.9375 18 123 C18.79681318 120.35815459 18.79681318 120.35815459 19 118 C16.28775382 119.61268692 13.62647188 121.24901874 11 123 C10.74605469 122.38511719 10.49210938 121.77023438 10.23046875 121.13671875 C9.88628906 120.32847656 9.54210938 119.52023438 9.1875 118.6875 C8.85105469 117.88699219 8.51460937 117.08648437 8.16796875 116.26171875 C7.00487251 114.00943539 5.96190034 112.59114752 4 111 C3.34 111 2.68 111 2 111 C2.28743055 115.74260415 4.51627628 117.88335607 7.56640625 121.21875 C9.49091791 123.60996885 10.27870154 126.04267633 11 129 C8.03 129 5.06 129 2 129 C2.75150023 132.27773504 2.75150023 132.27773504 6 134 C7.134375 134.0825 8.26875 134.165 9.4375 134.25 C13 135 13 135 15.4375 138.0625 C15.953125 139.031875 16.46875 140.00125 17 141 C14.59454362 142.20272819 13.05003047 142.10071472 10.375 142.0625 C9.55773438 142.05347656 8.74046875 142.04445312 7.8984375 142.03515625 C6.95871094 142.01775391 6.95871094 142.01775391 6 142 C7.75864246 144.1793144 8.69396 144.93686419 11.48046875 145.51171875 C12.37378906 145.56972656 13.26710938 145.62773437 14.1875 145.6875 C15.53908203 145.78611328 15.53908203 145.78611328 16.91796875 145.88671875 C17.60503906 145.92410156 18.29210937 145.96148437 19 146 C19.99 148.475 19.99 148.475 21 151 C18.36 151.33 15.72 151.66 13 152 C13 152.99 13 153.98 13 155 C13.77085938 154.97679687 14.54171875 154.95359375 15.3359375 154.9296875 C16.33882812 154.91164062 17.34171875 154.89359375 18.375 154.875 C19.37273438 154.85179687 20.37046875 154.82859375 21.3984375 154.8046875 C24 155 24 155 26 157 C26.30690654 159.57685678 26.51014493 162.04103303 26.625 164.625 C26.74940694 167.08336342 26.87435846 169.54169937 27 172 C45.04529379 172.85443285 63.06515659 173.19813839 81.12890625 173.31640625 C83.82845183 173.33659464 86.52798739 173.35800452 89.2275238 173.37937927 C95.53071247 173.42860676 101.83392283 173.47379437 108.13715261 173.51740164 C115.33230002 173.5673858 122.52740954 173.62206994 129.72251999 173.67708123 C144.48164392 173.78982252 159.24080561 173.89688141 174 174 C174.04898438 172.87980469 174.09796875 171.75960937 174.1484375 170.60546875 C174.22347856 169.13278797 174.29902582 167.66013293 174.375 166.1875 C174.4059375 165.44951172 174.436875 164.71152344 174.46875 163.95117188 C174.67346148 160.18106885 174.86433827 158.20349259 177 155 C180.0390625 154.70703125 180.0390625 154.70703125 183.625 154.8125 C184.81351563 154.83957031 186.00203125 154.86664063 187.2265625 154.89453125 C188.14179688 154.92933594 189.05703125 154.96414062 190 155 C190 154.01 190 153.02 190 152 C186.7 151.67 183.4 151.34 180 151 C180.66 149.35 181.32 147.7 182 146 C182.67546875 145.93941406 183.3509375 145.87882813 184.046875 145.81640625 C184.93890625 145.73261719 185.8309375 145.64882812 186.75 145.5625 C187.63171875 145.48128906 188.5134375 145.40007812 189.421875 145.31640625 C191.69350452 145.03761535 193.79851823 144.61209423 196 144 C195.67 143.34 195.34 142.68 195 142 C191.7 142 188.4 142 185 142 C185.75 137.25 185.75 137.25 188 135 C190.29089796 134.46146802 192.58034054 134.11274024 194.90625 133.7578125 C197.1862654 133.17746672 197.1862654 133.17746672 198.28125 130.9296875 C198.5184375 130.29289063 198.755625 129.65609375 199 129 C196.36 129 193.72 129 191 129 C191.37632497 123.60600878 192.99242379 121.53048381 197 118 C197.99 117.01 198.98 116.02 200 115 C200 143.05 200 171.1 200 200 C134 200 68 200 0 200 C0 134 0 68 0 0 Z " fill="#1F2937" transform="translate(0,0)"/>
<path d="M0 0 C3.98815706 1.88044587 7.17771742 4.46094991 10.5625 7.25 C22.25742911 16.74385588 34.479275 25.53601494 46.77563477 34.22949219 C52.33883899 38.18938079 57.74544819 42.35114517 63.14111328 46.53540039 C63.8164209 47.05739014 64.49172852 47.57937988 65.1875 48.1171875 C65.77917969 48.57722168 66.37085938 49.03725586 66.98046875 49.51123047 C69.07288503 51.18388696 69.07288503 51.18388696 72.18798828 52.28076172 C75.60876635 55.58868203 75.49101387 56.69205392 75.77294922 61.32910156 C75.81406176 64.02060836 75.82362667 66.70003946 75.8046875 69.390625 C75.81593962 70.81982664 75.82982116 72.24900979 75.84622192 73.67816162 C75.88226324 77.43321033 75.88263344 81.18744496 75.87554932 84.94262695 C75.87463647 88.77700366 75.90749387 92.61107515 75.9375 96.4453125 C75.99136488 103.96364966 76.00754395 111.48144707 76 119 C76.61875 119.103125 77.2375 119.20625 77.875 119.3125 C80 120 80 120 82 123 C81.05579573 120.57204617 80.12358929 118.22658036 78.875 115.9375 C78 114 78 114 78 110 C80.88575819 110.39803561 81.82189513 110.79009069 83.75 113.0625 C84.36875 114.0215625 84.36875 114.0215625 85 115 C85.99 113.02 85.99 113.02 87 111 C86.175 110.0925 85.35 109.185 84.5 108.25 C81.96705003 105.46375503 82 105.12741739 82 101 C85.31726155 101.57194165 86.72635823 102.57000464 89 105 C89.36351562 104.20335938 89.36351562 104.20335938 89.734375 103.390625 C91.69412559 99.26007376 93.46628972 96.02889453 97 93 C97.99 93.33 98.98 93.66 100 94 C99.67506385 97.5742977 99.36129314 99.55712453 97.0625 102.375 C95 104 95 104 93 104 C92.34 106.64 91.68 109.28 91 112 C93.64 112 96.28 112 99 112 C98.6875 113.875 98.6875 113.875 98 116 C94.55549263 118.29633824 92.06187717 118.54016485 88 119 C87.34 120.65 86.68 122.3 86 124 C88.97 124 91.94 124 95 124 C95.33 124.99 95.66 125.98 96 127 C92.08153264 129.2781787 88.68921137 129.31578242 84.2421875 129.4609375 C81.81486907 129.77056461 81.81486907 129.77056461 80.6953125 132.0390625 C80.46585938 132.68617188 80.23640625 133.33328125 80 134 C81.093125 133.979375 82.18625 133.95875 83.3125 133.9375 C87 134 87 134 90 135 C90 135.99 90 136.98 90 138 C85.60563789 138.85743651 81.47427924 139.08948558 77 139 C75.53387097 141.93225805 75.68706318 144.73975597 75.5 148 C75.11111111 154.77777778 75.11111111 154.77777778 74 157 C58.52494749 157.02355052 43.04989635 157.04108639 27.57483006 157.05181217 C20.38655047 157.05692873 13.19828212 157.06388082 6.01000977 157.07543945 C-0.26858261 157.08553036 -6.54716683 157.09188697 -12.8257671 157.09408849 C-16.13814198 157.09537165 -19.45047535 157.09885823 -22.76284599 157.10573006 C-35.93700563 157.1319351 -49.09191295 157.05275004 -62.25805664 156.55639648 C-63.33009307 156.51754113 -64.4021295 156.47868578 -65.50665188 156.43865299 C-66.48048352 156.3971786 -67.45431517 156.35570421 -68.45765686 156.31297302 C-69.74274942 156.25891879 -69.74274942 156.25891879 -71.05380344 156.20377254 C-73 156 -73 156 -74 155 C-74.23653523 152.47403741 -74.42173692 149.96892793 -74.5625 147.4375 C-74.60568359 146.72658203 -74.64886719 146.01566406 -74.69335938 145.28320312 C-74.79971777 143.52238088 -74.90038846 141.7612168 -75 140 C-78.08586014 139.30953216 -80.48616036 139.01648001 -83.6875 139.125 C-84.780625 139.08375 -85.87375 139.0425 -87 139 C-87.66 138.01 -88.32 137.02 -89 136 C-87 134 -87 134 -85.0546875 133.8046875 C-83.03645833 133.86979167 -81.01822917 133.93489583 -79 134 C-79.6412418 131.94464857 -79.6412418 131.94464857 -81 130 C-83.28998397 129.44598049 -83.28998397 129.44598049 -85.875 129.5 C-90.71047976 129.22748019 -90.71047976 129.22748019 -93.625 126.9375 C-94.305625 125.9784375 -94.305625 125.9784375 -95 125 C-94 124 -94 124 -91.71484375 123.90234375 C-90.79832031 123.91394531 -89.88179687 123.92554688 -88.9375 123.9375 C-87.55884766 123.95103516 -87.55884766 123.95103516 -86.15234375 123.96484375 C-85.08693359 123.98224609 -85.08693359 123.98224609 -84 124 C-85.00916823 121.4251788 -85.00916823 121.4251788 -87 119 C-90.44579041 118.32915888 -90.44579041 118.32915888 -94 118 C-96.4375 116.625 -96.4375 116.625 -98 115 C-98 114.01 -98 113.02 -98 112 C-95.36 111.67 -92.72 111.34 -90 111 C-91.51945174 106.92147165 -92.51388121 104.48611879 -95.625 101.375 C-98.18497272 98.81502728 -98.69667151 97.53883241 -99 94 C-97.68 94 -96.36 94 -95 94 C-91.64273049 97.4372045 -89.49403348 100.38207835 -88 105 C-87.1028125 104.01 -87.1028125 104.01 -86.1875 103 C-84 101 -84 101 -81 101 C-80.75 103.25 -80.75 103.25 -81 106 C-82.0209375 106.99 -82.0209375 106.99 -83.0625 108 C-84.0215625 108.99 -84.0215625 108.99 -85 110 C-84.85974801 112.70705512 -84.85974801 112.70705512 -84 115 C-83.401875 114.175 -82.80375 113.35 -82.1875 112.5 C-81.465625 111.675 -80.74375 110.85 -80 110 C-79.01 110 -78.02 110 -77 110 C-77.51659807 114.44274339 -78.68809763 117.21688703 -81 121 C-80.505 121.99 -80.505 121.99 -80 123 C-79.54625 122.175 -79.0925 121.35 -78.625 120.5 C-78.08875 119.675 -77.5525 118.85 -77 118 C-76.34 118 -75.68 118 -75 118 C-75.01856049 117.23293732 -75.03712097 116.46587463 -75.0562439 115.67556763 C-75.21948456 108.40823316 -75.31424876 101.14460898 -75.33421898 93.87558174 C-75.34684439 90.13893997 -75.38491623 86.40634178 -75.48339844 82.67089844 C-76.14565528 56.4710403 -76.14565528 56.4710403 -71.01196289 50.93212891 C-67.63304245 48.20124872 -63.98289382 46.68304114 -60 45 C-57.77617776 43.48876078 -55.76863567 41.83819621 -53.6875 40.125 C-48.72719162 36.26312821 -43.65291919 32.60080059 -38.5 29 C-31.78930251 24.30526418 -25.26285897 19.44570456 -18.80712891 14.40380859 C-15.11810467 11.53811157 -11.40018626 8.70992534 -7.6875 5.875 C-6.21220997 4.74743458 -4.73694699 3.61983376 -3.26171875 2.4921875 C-2.17449975 1.6614314 -1.08726857 0.83069122 0 0 Z M-5.875 7.5625 C-17.97434544 17.22693816 -30.35970361 26.51845152 -43.0625 35.375 C-48.68460394 39.29498719 -54.07766573 43.3393759 -59.3125 47.76953125 C-62 50 -62 50 -64.20030212 51.15594482 C-67.07508107 52.85862061 -68.93391598 54.35558473 -71 57 C-72.28021864 62.62659955 -72.05079998 68.13102908 -71.87890625 73.87109375 C-71.86210265 75.52015193 -71.84929974 77.1692553 -71.84031677 78.81837463 C-71.80608756 83.14161042 -71.71780825 87.46208852 -71.61798096 91.78424072 C-71.52561422 96.20148412 -71.48474573 100.61917691 -71.43945312 105.03710938 C-71.3431694 113.69266646 -71.18974047 122.34598943 -71 131 C-68.03 130.01 -68.03 130.01 -65 129 C-67.63358779 135.64667394 -67.63358779 135.64667394 -69.75 137.6875 C-70.1625 138.120625 -70.575 138.55375 -71 139 C-70.58875328 142.56413822 -68.99945993 144.46261666 -66.625 147.0625 C-66.01914063 147.73410156 -65.41328125 148.40570313 -64.7890625 149.09765625 C-64.19867188 149.72542969 -63.60828125 150.35320312 -63 151 C-62.49597656 151.57234375 -61.99195313 152.1446875 -61.47265625 152.734375 C-59.15972631 154.72214503 -56.92171711 154.19478114 -54 154 C-54.69464522 149.37380608 -55.75026572 144.89414985 -56.9375 140.375 C-58.2597578 135.33104746 -59.25660279 130.43943634 -59.875 125.25 C-60.54793185 120.68006229 -60.54793185 120.68006229 -64 117.4375 C-64.99 116.963125 -65.98 116.48875 -67 116 C-67.66 115.01 -68.32 114.02 -69 113 C-65.04 113.495 -65.04 113.495 -61 114 C-60.5796312 109.95960615 -60.5796312 109.95960615 -61 106 C-63.85251385 103.82053354 -63.85251385 103.82053354 -67 102 C-68.375 98.75 -68.375 98.75 -69 96 C-65.64404172 96.59927826 -63.62198774 97.84622436 -61 100 C-60.71292849 95.02409389 -60.90682831 92.8355329 -64 89 C-64.6875 85.75 -64.6875 85.75 -65 83 C-63.02 83.99 -61.04 84.98 -59 86 C-59.50603992 83.83125748 -59.99983813 82.00032373 -61 80 C-61.04022391 77.6670134 -61.04320247 75.33293334 -61 73 C-59.35 74.32 -57.7 75.64 -56 77 C-54.5997208 71.53891111 -55.57294366 67.30723432 -57 62 C-54.00667261 62.9977758 -53.05233685 63.7522025 -51 66 C-50.70867188 65.37351563 -50.41734375 64.74703125 -50.1171875 64.1015625 C-46.72727273 57.34305317 -46.72727273 57.34305317 -42.6875 55.4375 C-41.800625 55.293125 -40.91375 55.14875 -40 55 C-41.99607163 59.93147107 -44.45970281 62.53418104 -48.57421875 65.703125 C-49.04472656 66.13109375 -49.51523437 66.5590625 -50 67 C-50 67.66 -50 68.32 -50 69 C-45.545 68.505 -45.545 68.505 -41 68 C-43.0625 70.5 -43.0625 70.5 -46 73 C-49.8125 73.3125 -49.8125 73.3125 -53 73 C-53.33 74.65 -53.66 76.3 -54 78 C-50.535 77.505 -50.535 77.505 -47 77 C-47.5625 78.75 -47.5625 78.75 -49 81 C-50.175625 81.598125 -51.35125 82.19625 -52.5625 82.8125 C-54.45916108 83.71861123 -54.45916108 83.71861123 -56 85 C-57.0565109 88.63147485 -57.0565109 88.63147485 -57 92 C-55.515 91.01 -55.515 91.01 -54 90 C-52.0103005 89.60986284 -50.00980131 89.26797351 -48 89 C-50.37277818 94.02470674 -53.21097855 95.56030983 -58 98 C-58 99.98 -58 101.96 -58 104 C-55.36 103.01 -52.72 102.02 -50 101 C-51.04288335 104.75438006 -51.69746346 105.81847808 -55.125 107.875 C-56.07375 108.57625 -57.0225 109.2775 -58 110 C-58.50125283 113.66857722 -58.50125283 113.66857722 -58 117 C-57.21625 116.505 -56.4325 116.01 -55.625 115.5 C-53 114 -53 114 -51 114 C-51.125 115.6875 -51.125 115.6875 -52 118 C-53.03125 118.70125 -54.0625 119.4025 -55.125 120.125 C-57.10979085 121.71378691 -57.91172757 122.44057345 -58.3125 124.98046875 C-58.09111085 127.73399633 -57.60231084 130.30151131 -57 133 C-56.85675293 133.64598145 -56.71350586 134.29196289 -56.56591797 134.95751953 C-54.65882558 144.29197815 -54.65882558 144.29197815 -51 153 C-49.02 153 -47.04 153 -45 153 C-45 145.74 -45 138.48 -45 131 C-42.36 130.67 -39.72 130.34 -37 130 C-36.72042917 126.87427346 -36.72042917 126.87427346 -38.8125 124.3125 C-41.26823783 120.59381129 -42.55231158 117.19829641 -44 113 C-38.25 114.875 -38.25 114.875 -36 116 C-36.32960216 110.98464948 -36.32960216 110.98464948 -39 107 C-40.32 106.67 -41.64 106.34 -43 106 C-43 103.03 -43 100.06 -43 97 C-40.525 96.505 -40.525 96.505 -38 96 C-37.505 94.02 -37.505 94.02 -37 92 C-36.484375 92.28875 -35.96875 92.5775 -35.4375 92.875 C-32.37643275 94.28780027 -29.25055082 95.1248517 -26 96 C-26.185625 96.556875 -26.37125 97.11375 -26.5625 97.6875 C-27.16601898 100.0179995 -27.16601898 100.0179995 -26.4375 102.375 C-25.87726491 105.73641053 -26.76374112 107.87299224 -28 111 C-29.65 111 -31.3 111 -33 111 C-33 114.3 -33 117.6 -33 121 C-32.236875 120.195625 -31.47375 119.39125 -30.6875 118.5625 C-28 116 -28 116 -25 115 C-26.1454153 120.1103144 -27.45478745 124.37234081 -30 129 C-27.03 129.99 -27.03 129.99 -24 131 C-24 138.26 -24 145.52 -24 153 C-22.02 153 -20.04 153 -18 153 C-17.99635437 152.16141449 -17.99270874 151.32282898 -17.98895264 150.45883179 C-17.95103415 142.54317974 -17.89413782 134.62793809 -17.81609726 126.71257591 C-17.77664334 122.6434916 -17.74444485 118.574623 -17.72900391 114.50537109 C-17.71382324 110.5758415 -17.67935364 106.64690505 -17.63169098 102.71763992 C-17.61689154 101.22104686 -17.6089598 99.7243691 -17.60811615 98.22770309 C-17.60574019 96.12561083 -17.57861521 94.02514949 -17.54589844 91.92333984 C-17.53257477 90.1313063 -17.53257477 90.1313063 -17.51898193 88.30307007 C-16.80164267 83.73755111 -14.82780475 80.40748678 -11.1484375 77.57421875 C-4.9291243 74.46456215 -1.01539853 73.11058338 6 74 C11.68884396 76.0963477 15.27424656 78.50408377 18 84 C18.39872742 87.25874329 18.39872742 87.25874329 18.43237305 90.9934082 C18.44766052 92.01862831 18.44766052 92.01862831 18.46325684 93.06455994 C18.49330492 95.31005131 18.50263979 97.55511553 18.51171875 99.80078125 C18.52857159 101.3630667 18.54672265 102.92533863 18.56611633 104.4875946 C18.61355708 108.58924132 18.64340456 112.69083324 18.66955566 116.79266357 C18.69939123 120.98232846 18.74591124 125.17180471 18.79101562 129.36132812 C18.87698126 137.57412594 18.94435629 145.78694104 19 154 C21.31 154 23.62 154 26 154 C25.85775413 151.47891897 25.71129879 148.95819597 25.5625 146.4375 C25.52318359 145.73302734 25.48386719 145.02855469 25.44335938 144.30273438 C25.17481721 139.8201459 24.69383803 135.43706503 24 131 C28.455 130.505 28.455 130.505 33 130 C32.38125 129.360625 31.7625 128.72125 31.125 128.0625 C28.43405212 124.18436924 27.76093455 120.59564421 27 116 C30.09162264 117.38589981 31.49183541 118.49183541 34 121 C34 117.7 34 114.4 34 111 C33.21625 110.938125 32.4325 110.87625 31.625 110.8125 C29 110 29 110 27.625 108 C26.76150929 103.85524461 27.33133876 100.14750686 28 96 C30.07553648 95.4465236 31.84365964 95 34 95 C34.99 93.515 34.99 93.515 36 92 C37.485 92.495 37.485 92.495 39 93 C39.33 93.99 39.66 94.98 40 96 C42.50447516 97.21869929 42.50447516 97.21869929 45 98 C44.814375 98.7425 44.62875 99.485 44.4375 100.25 C44.00796892 102.94990963 44.14877026 104.44631077 45 107 C43.02 107 41.04 107 39 107 C37.39644899 110.50776784 36.77963136 113.14354879 37 117 C37.5775 116.525625 38.155 116.05125 38.75 115.5625 C40.95298751 114.03264756 42.42770302 113.55661048 45 113 C43.3039581 119.20503135 41.3029796 123.23183341 37 128 C37 128.66 37 129.32 37 130 C39.97 130.33 42.94 130.66 46 131 C46 138.59 46 146.18 46 154 C48.31 154 50.62 154 53 154 C55.48428762 145.73914067 57.79758114 137.56007712 59 129 C59.165 127.88625 59.33 126.7725 59.5 125.625 C58.74844635 121.67934336 56.05846485 120.43428835 53 118 C52.125 115.1875 52.125 115.1875 52 113 C54.71224618 114.61268692 57.37352812 116.24901874 60 118 C60.58560449 114.71158857 60.58560449 114.71158857 60 111 C58.32327673 109.41786112 56.64129219 108.35627344 54.62890625 107.23828125 C52.57006225 105.67316483 52.37441223 104.50487052 52 102 C55.37462715 102.54723683 57.08235 103.0549 60 105 C60.7555432 102.2587435 60.7555432 102.2587435 60 99 C57.80525328 97.18410837 55.54172052 95.80069569 53.06640625 94.39453125 C51 93 51 93 50 90 C52.64 90.33 55.28 90.66 58 91 C58.41839694 88.65604904 58.41839694 88.65604904 58 86 C55.81647341 83.94091375 55.81647341 83.94091375 53 82.3125 C51.30570607 81.25121311 49.630971 80.15624194 48 79 C48 78.34 48 77.68 48 77 C50.31 77.33 52.62 77.66 55 78 C54.67 76.35 54.34 74.7 54 73 C52.39125 73.0928125 52.39125 73.0928125 50.75 73.1875 C46.91054943 72.99552747 45.61381519 72.71836779 43 70 C43 69.34 43 68.68 43 68 C46.12290635 68.48578543 48.99580359 68.9986012 52 70 C50.64004663 66.8381084 49.22140627 65.14391454 46.5 63.0625 C43.54575023 60.64873668 42.00183473 58.784709 41 55 C43.31 55.33 45.62 55.66 48 56 C48.28875 57.093125 48.5775 58.18625 48.875 59.3125 C49.81893204 63.04013845 49.81893204 63.04013845 52 66 C54.24362573 66.2284549 54.24362573 66.2284549 56.125 64 C56.74375 63.34 57.3625 62.68 58 62 C57.76603516 63.12148437 57.76603516 63.12148437 57.52734375 64.265625 C57.23537109 65.74289063 57.23537109 65.74289063 56.9375 67.25 C56.74027344 68.22453125 56.54304688 69.1990625 56.33984375 70.203125 C56.01602465 72.868119 56.14496801 74.48871723 57 77 C57.66 77 58.32 77 59 77 C59.28875 76.360625 59.5775 75.72125 59.875 75.0625 C61 73 61 73 63 72 C62.68872484 73.58357459 62.37592711 75.16684993 62.0625 76.75 C61.88847656 77.63171875 61.71445313 78.5134375 61.53515625 79.421875 C61.07631512 81.63235053 60.56663926 83.81512068 60 86 C60.99 85.34 61.98 84.68 63 84 C63.99 84 64.98 84 66 84 C65.37234043 89.52340426 65.37234043 89.52340426 63.4375 92 C61.48602643 94.71509367 61.77765788 96.73898222 62 100 C62.66 100 63.32 100 64 100 C64.66 99.34 65.32 98.68 66 98 C66.66 97.34 67.32 96.68 68 96 C68.66 96 69.32 96 70 96 C69.875 98.1875 69.875 98.1875 69 101 C67.4840625 102.1446875 67.4840625 102.1446875 65.9375 103.3125 C62.86088103 105.58760584 62.86088103 105.58760584 62.60546875 108.09375 C62.59302334 110.56232073 62.59302334 110.56232073 63 114 C65.64 113.67 68.28 113.34 71 113 C66.37200504 117.88510579 66.37200504 117.88510579 63.92578125 118.640625 C61.57531363 119.98716144 61.57531363 119.98716144 61.05859375 123.7109375 C60.83511804 125.26334652 60.62904417 126.81832855 60.4375 128.375 C60.20450925 130.01098964 59.96751478 131.64641398 59.7265625 133.28125 C59.60958008 134.08433594 59.49259766 134.88742188 59.37207031 135.71484375 C58.71405006 139.75622799 57.64546547 143.67632432 56.55078125 147.6171875 C55.84986037 150.24193357 55.84986037 150.24193357 56 154 C58.65716506 154.67565506 58.65716506 154.67565506 62 154 C65.97089755 150.8453425 69.1929011 147.21064835 72 143 C71.78504839 138.05611299 70.17755487 135.67404782 67 132 C66.67 131.01 66.34 130.02 66 129 C70.75 130.875 70.75 130.875 73 132 C73.01276861 129.50520993 73.02447171 127.01042446 73.03515625 124.515625 C73.03861557 123.72494629 73.04207489 122.93426758 73.04563904 122.11962891 C73.06158661 117.68335448 73.06131821 113.24775999 73.03515625 108.81152344 C73.0246642 106.95768272 73.01424832 105.10384156 73.00390625 103.25 C72.99835724 102.31448303 72.99280823 101.37896606 72.98709106 100.4151001 C72.9679755 95.01382063 73.05476372 89.63045333 73.25241089 84.23291016 C74.76199848 66.75738371 74.76199848 66.75738371 68.72265625 51.375 C65.435942 48.58511 61.87836726 46.67112572 57.953125 44.92382812 C55.29390539 43.66601725 53.26055584 41.93856313 51.0625 40 C46.84667612 36.57948179 42.45238547 33.47504183 38 30.375 C30.20363362 24.94153907 22.68599033 19.19948493 15.21875 13.32421875 C14.53554687 12.78716309 13.85234375 12.25010742 13.1484375 11.69677734 C11.60701499 10.47940389 10.07119256 9.25492689 8.5390625 8.02587891 C7.73210937 7.38440918 6.92515625 6.74293945 6.09375 6.08203125 C4.99063477 5.19801636 4.99063477 5.19801636 3.86523438 4.29614258 C-0.22707051 1.45241919 -2.62027771 4.91549646 -5.875 7.5625 Z " fill="#B8BCC4" transform="translate(100,17)"/>
<path d="M0 0 C3.98815706 1.88044587 7.17771742 4.46094991 10.5625 7.25 C22.25742911 16.74385588 34.479275 25.53601494 46.77563477 34.22949219 C52.33883899 38.18938079 57.74544819 42.35114517 63.14111328 46.53540039 C63.8164209 47.05739014 64.49172852 47.57937988 65.1875 48.1171875 C65.77917969 48.57722168 66.37085938 49.03725586 66.98046875 49.51123047 C69.07288503 51.18388696 69.07288503 51.18388696 72.18798828 52.28076172 C75.60876635 55.58868203 75.49101387 56.69205392 75.77294922 61.32910156 C75.81406176 64.02060836 75.82362667 66.70003946 75.8046875 69.390625 C75.81593962 70.81982664 75.82982116 72.24900979 75.84622192 73.67816162 C75.88226324 77.43321033 75.88263344 81.18744496 75.87554932 84.94262695 C75.87463647 88.77700366 75.90749387 92.61107515 75.9375 96.4453125 C75.99136488 103.96364966 76.00754395 111.48144707 76 119 C76.61875 119.103125 77.2375 119.20625 77.875 119.3125 C80 120 80 120 82 123 C81.05579573 120.57204617 80.12358929 118.22658036 78.875 115.9375 C78 114 78 114 78 110 C80.88575819 110.39803561 81.82189513 110.79009069 83.75 113.0625 C84.36875 114.0215625 84.36875 114.0215625 85 115 C85.99 113.02 85.99 113.02 87 111 C86.175 110.0925 85.35 109.185 84.5 108.25 C81.96705003 105.46375503 82 105.12741739 82 101 C85.31726155 101.57194165 86.72635823 102.57000464 89 105 C89.36351562 104.20335938 89.36351562 104.20335938 89.734375 103.390625 C91.69412559 99.26007376 93.46628972 96.02889453 97 93 C97.99 93.33 98.98 93.66 100 94 C99.67506385 97.5742977 99.36129314 99.55712453 97.0625 102.375 C95 104 95 104 93 104 C92.34 106.64 91.68 109.28 91 112 C93.64 112 96.28 112 99 112 C98.6875 113.875 98.6875 113.875 98 116 C94.55549263 118.29633824 92.06187717 118.54016485 88 119 C87.34 120.65 86.68 122.3 86 124 C88.97 124 91.94 124 95 124 C95.33 124.99 95.66 125.98 96 127 C92.08153264 129.2781787 88.68921137 129.31578242 84.2421875 129.4609375 C81.81486907 129.77056461 81.81486907 129.77056461 80.6953125 132.0390625 C80.46585938 132.68617188 80.23640625 133.33328125 80 134 C81.093125 133.979375 82.18625 133.95875 83.3125 133.9375 C87 134 87 134 90 135 C90 135.99 90 136.98 90 138 C85.60563789 138.85743651 81.47427924 139.08948558 77 139 C75.5192152 141.9615696 75.64685963 144.83506295 75.4375 148.125 C75.35371094 149.40632812 75.26992187 150.68765625 75.18359375 152.0078125 C75.12300781 152.99523437 75.06242188 153.98265625 75 155 C74.34 154.67 73.68 154.34 73 154 C71.62657169 153.9310528 70.24997898 153.91532292 68.875 153.9375 C66.956875 153.9684375 66.956875 153.9684375 65 154 C64.67 153.01 64.34 152.02 64 151 C65.46875 149.16796875 65.46875 149.16796875 67.5 147.1875 C70.50518303 144.03526261 70.50518303 144.03526261 71.1875 139.8125 C69.87756068 136.71001213 68.15328771 134.57005307 66 132 C66 131.01 66 130.02 66 129 C70.875 129.875 70.875 129.875 72 131 C72.05401949 120.75790459 72.06039841 110.51727144 72.00975037 100.27513123 C71.98903586 94.9114289 72.02816066 89.55321263 72.12556458 84.19039917 C72.17555854 80.92487984 72.18073079 77.66026126 72.17599487 74.39440918 C72.18360742 72.85146499 72.21043792 71.30848485 72.25735474 69.76623535 C72.65879853 60.91062383 72.65879853 60.91062383 68.6315918 53.35961914 C65.84043625 51.32113999 63.02488825 49.66355713 60 48 C58.45300601 46.80392546 56.9273176 45.57908132 55.4375 44.3125 C50.79178786 40.54850994 45.97970633 37.04895714 41.125 33.5625 C30.83049593 26.16855267 30.83049593 26.16855267 26 22.5625 C24.62134766 21.53382812 24.62134766 21.53382812 23.21484375 20.484375 C20.57157923 18.47325172 18.00713449 16.37455794 15.44140625 14.265625 C14.63638672 13.61392334 13.83136719 12.96222168 13.00195312 12.29077148 C11.39837982 10.9903557 9.80672797 9.67507428 8.22851562 8.34399414 C6.20299123 6.71125965 4.28904316 5.23634397 2 4 C-2.26727177 4.53417647 -4.95472443 7.45867866 -8.125 10.25 C-19.79413006 20.27341183 -32.52936199 28.99723213 -45.12744141 37.79882812 C-50.07939031 41.28436043 -54.79085094 44.94731111 -59.41015625 48.8671875 C-62 51 -62 51 -63.96775818 51.93109131 C-66.61523083 53.36420642 -68.15910162 54.59556326 -70 57 C-71.21943494 62.57515296 -71.07246168 68.08939053 -71 73.7734375 C-71.00752291 75.42397979 -71.01856072 77.07450947 -71.03295898 78.7250061 C-71.0613389 83.05570912 -71.04213954 87.38493016 -71.01287842 91.71557617 C-70.99145332 96.13990866 -71.01523247 100.56397593 -71.03515625 104.98828125 C-71.06756724 113.65922976 -71.0496936 122.32913508 -71 131 C-69.515 130.01 -69.515 130.01 -68 129 C-67.01 129 -66.02 129 -65 129 C-65.44831814 133.93149957 -66.58130366 135.58130366 -70 139 C-69.91411816 141.66233703 -68.94096511 143.09753591 -67.5625 145.375 C-65.8949424 148.17649677 -64.94086702 150.8879014 -64 154 C-66.01822917 153.96744792 -68.03645833 153.93489583 -70.0546875 153.90234375 C-72.08185404 153.87350758 -72.08185404 153.87350758 -74 155 C-74.495 147.575 -74.495 147.575 -75 140 C-79.75364596 138.85060958 -79.75364596 138.85060958 -83.6875 139.125 C-84.780625 139.08375 -85.87375 139.0425 -87 139 C-87.66 138.01 -88.32 137.02 -89 136 C-87 134 -87 134 -85.0546875 133.8046875 C-83.03645833 133.86979167 -81.01822917 133.93489583 -79 134 C-79.6412418 131.94464857 -79.6412418 131.94464857 -81 130 C-83.28998397 129.44598049 -83.28998397 129.44598049 -85.875 129.5 C-90.71047976 129.22748019 -90.71047976 129.22748019 -93.625 126.9375 C-94.305625 125.9784375 -94.305625 125.9784375 -95 125 C-94 124 -94 124 -91.71484375 123.90234375 C-90.79832031 123.91394531 -89.88179687 123.92554688 -88.9375 123.9375 C-87.55884766 123.95103516 -87.55884766 123.95103516 -86.15234375 123.96484375 C-85.08693359 123.98224609 -85.08693359 123.98224609 -84 124 C-85.00916823 121.4251788 -85.00916823 121.4251788 -87 119 C-90.44579041 118.32915888 -90.44579041 118.32915888 -94 118 C-96.4375 116.625 -96.4375 116.625 -98 115 C-98 114.01 -98 113.02 -98 112 C-95.36 111.67 -92.72 111.34 -90 111 C-91.51945174 106.92147165 -92.51388121 104.48611879 -95.625 101.375 C-98.18497272 98.81502728 -98.69667151 97.53883241 -99 94 C-97.68 94 -96.36 94 -95 94 C-91.64273049 97.4372045 -89.49403348 100.38207835 -88 105 C-87.1028125 104.01 -87.1028125 104.01 -86.1875 103 C-84 101 -84 101 -81 101 C-80.75 103.25 -80.75 103.25 -81 106 C-82.0209375 106.99 -82.0209375 106.99 -83.0625 108 C-84.0215625 108.99 -84.0215625 108.99 -85 110 C-84.85974801 112.70705512 -84.85974801 112.70705512 -84 115 C-83.401875 114.175 -82.80375 113.35 -82.1875 112.5 C-81.465625 111.675 -80.74375 110.85 -80 110 C-79.01 110 -78.02 110 -77 110 C-77.51659807 114.44274339 -78.68809763 117.21688703 -81 121 C-80.505 121.99 -80.505 121.99 -80 123 C-79.54625 122.175 -79.0925 121.35 -78.625 120.5 C-78.08875 119.675 -77.5525 118.85 -77 118 C-76.34 118 -75.68 118 -75 118 C-75.01856049 117.23293732 -75.03712097 116.46587463 -75.0562439 115.67556763 C-75.21948456 108.40823316 -75.31424876 101.14460898 -75.33421898 93.87558174 C-75.34684439 90.13893997 -75.38491623 86.40634178 -75.48339844 82.67089844 C-76.14565528 56.4710403 -76.14565528 56.4710403 -71.01196289 50.93212891 C-67.63304245 48.20124872 -63.98289382 46.68304114 -60 45 C-57.77617776 43.48876078 -55.76863567 41.83819621 -53.6875 40.125 C-48.72719162 36.26312821 -43.65291919 32.60080059 -38.5 29 C-31.78930251 24.30526418 -25.26285897 19.44570456 -18.80712891 14.40380859 C-15.11810467 11.53811157 -11.40018626 8.70992534 -7.6875 5.875 C-6.21220997 4.74743458 -4.73694699 3.61983376 -3.26171875 2.4921875 C-2.17449975 1.6614314 -1.08726857 0.83069122 0 0 Z " fill="#B7BBC3" transform="translate(100,17)"/>
<path d="M0 0 C3.25 0 3.25 0 7 1 C9.2336248 3.92881638 11 7.26770676 11 11 C11.66 11 12.32 11 13 11 C13.66 9.68 14.32 8.36 15 7 C15.66 7 16.32 7 17 7 C17.10662326 12.11791642 16.71167986 16.92928099 16 22 C16.66 22 17.32 22 18 22 C18.103125 21.360625 18.20625 20.72125 18.3125 20.0625 C18.539375 19.381875 18.76625 18.70125 19 18 C19.99 17.67 20.98 17.34 22 17 C22.14285714 25.57142857 22.14285714 25.57142857 21 29 C22.32 28.67 23.64 28.34 25 28 C25.75 30.125 25.75 30.125 26 33 C24.70672372 35.02613283 23.3703055 37.02514795 22 39 C21.20929452 42.23038842 21.20929452 42.23038842 21 45 C21.66 45 22.32 45 23 45 C23.33 44.01 23.66 43.02 24 42 C26.5625 40.8125 26.5625 40.8125 29 40 C29.67578125 41.765625 29.67578125 41.765625 30 44 C28.85546875 45.921875 28.85546875 45.921875 27.1875 47.75 C26.64480469 48.36359375 26.10210937 48.9771875 25.54296875 49.609375 C24 51 24 51 22 51 C22 53.64 22 56.28 22 59 C22.99 58.505 22.99 58.505 24 58 C25.99960012 57.960008 28.00047242 57.95653201 30 58 C28.549046 61.82524236 26.61818068 63.19090966 23 65 C22.34 65 21.68 65 21 65 C21.061875 66.0415625 21.12375 67.083125 21.1875 68.15625 C21.1875 74.44593094 19.48210024 80.42472423 18 86.5 C17.71382812 87.70398438 17.42765625 88.90796875 17.1328125 90.1484375 C16.4298303 93.10096272 15.71870514 96.05127005 15 99 C14.01 98.67 13.02 98.34 12 98 C12.42925781 96.11474609 12.42925781 96.11474609 12.8671875 94.19140625 C14.06656436 88.79421039 15.10412158 83.37084184 16.125 77.9375 C16.30675781 76.97650391 16.48851562 76.01550781 16.67578125 75.02539062 C17.11846406 72.68383154 17.5598472 70.34203573 18 68 C17.37609375 67.69707031 16.7521875 67.39414063 16.109375 67.08203125 C13.84923413 65.92266269 12.51331555 65.04297599 11 63 C10.8125 60.3125 10.8125 60.3125 11 58 C14.26954202 58.56371414 15.82575883 59.49962266 18 62 C18.50169415 59.16926564 18.50169415 59.16926564 18 56 C16.04690112 54.59886384 14.04291182 53.26660533 12 52 C10.625 49.25 10.625 49.25 10 47 C11.75 46.3125 11.75 46.3125 14 46 C16.25 47.4375 16.25 47.4375 18 49 C18 47.35 18 45.7 18 44 C16.906875 43.443125 15.81375 42.88625 14.6875 42.3125 C11.31962633 40.41040131 9.67814024 38.55370875 8 35 C10.91482778 34.19032562 12.46113217 33.78154007 15.3125 34.9375 C16.1478125 35.4634375 16.1478125 35.4634375 17 36 C16.85007895 33.59711602 16.85007895 33.59711602 16 31 C13.94675961 29.2573718 13.94675961 29.2573718 11.4375 27.9375 C8.93359375 26.52734375 8.93359375 26.52734375 7 25 C7 23.68 7 22.36 7 21 C11.75 21.875 11.75 21.875 14 23 C13.67 21.35 13.34 19.7 13 18 C11.948125 18.2475 10.89625 18.495 9.8125 18.75 C6 19 6 19 3.0625 17.0625 C2.381875 16.381875 1.70125 15.70125 1 15 C1.33 14.01 1.66 13.02 2 12 C5.73487777 12.4979837 7.81237635 12.87491756 11 15 C8.8284048 12.07669878 6.69990207 9.69164254 3.8125 7.5 C1 5 1 5 0.125 2.1875 C0.08375 1.465625 0.0425 0.74375 0 0 Z " fill="#BEC2C9" transform="translate(141,72)"/>
<path d="M0 0 C-0.33910146 3.07840541 -0.67380681 4.64920172 -2.8125 6.94921875 C-3.8953125 7.80966797 -3.8953125 7.80966797 -5 8.6875 C-7.96192671 10.96879293 -7.96192671 10.96879293 -10 14 C-9.278125 13.649375 -8.55625 13.29875 -7.8125 12.9375 C-4.6877295 11.89590983 -3.11838004 12.10903428 0 13 C-2.15135835 16.22703753 -3.26620644 17.7903447 -7.0625 18.875 C-10 19 -10 19 -13 18 C-12.67 19.32 -12.34 20.64 -12 22 C-10.35 21.67 -8.7 21.34 -7 21 C-7 22.32 -7 23.64 -7 25 C-9.61942203 27.47783165 -11.56995185 28.85665062 -15 30 C-15.33 31.98 -15.66 33.96 -16 36 C-15.34 35.34 -14.68 34.68 -14 34 C-10.875 33.875 -10.875 33.875 -8 34 C-8.33097938 37.08914085 -9.00284699 38.0026931 -11.3125 40.1875 C-13.69466602 41.79407709 -15.20379133 42.58574686 -18 43 C-17.67 44.65 -17.34 46.3 -17 48 C-16.01 47.34 -15.02 46.68 -14 46 C-12.68 46 -11.36 46 -10 46 C-10.29899215 49.58790575 -10.76986601 50.78166776 -13.4375 53.3125 C-16 55 -16 55 -18 55 C-17.67 56.98 -17.34 58.96 -17 61 C-16.401875 60.484375 -15.80375 59.96875 -15.1875 59.4375 C-14.465625 58.963125 -13.74375 58.48875 -13 58 C-11.515 58.495 -11.515 58.495 -10 59 C-10.47205119 63.24846075 -12.88877522 65.26819288 -16 68 C-16.66 68 -17.32 68 -18 68 C-17.37829964 71.16732351 -16.75202871 74.33372739 -16.125 77.5 C-15.95097656 78.386875 -15.77695312 79.27375 -15.59765625 80.1875 C-14.54242377 85.50274509 -13.36042333 90.75440373 -12 96 C-12.99 96 -13.98 96 -15 96 C-18.66011671 86.06539751 -21.28706959 75.63524471 -21 65 C-21.763125 64.731875 -22.52625 64.46375 -23.3125 64.1875 C-25.88988618 63.04865495 -27.26954864 62.18583329 -29 60 C-29 59.34 -29 58.68 -29 58 C-26.36 58.33 -23.72 58.66 -21 59 C-21 56.36 -21 53.72 -21 51 C-21.7425 50.79375 -22.485 50.5875 -23.25 50.375 C-26.8513647 48.57431765 -28.13240996 46.51968892 -30 43 C-29.67 42.01 -29.34 41.02 -29 40 C-25.73045798 40.56371414 -24.17424117 41.49962266 -22 44 C-21.62063713 39.70503541 -21.62063713 39.70503541 -23.5 36 C-25.53362803 33.28849596 -25.22509772 31.30143322 -25 28 C-23.68 28.33 -22.36 28.66 -21 29 C-20.8509288 26.9254644 -20.8509288 26.9254644 -22 25 C-22.04022391 22.6670134 -22.04320247 20.33293334 -22 18 C-21.01 18 -20.02 18 -19 18 C-18.34 18.99 -17.68 19.98 -17 21 C-15.99782936 17.41672247 -15.99782936 17.41672247 -17 14 C-17.04022391 11.6670134 -17.04320247 9.33293334 -17 7 C-14.13275314 7.57344937 -13.1385485 7.8614515 -11 10 C-10.61908203 9.16855469 -10.61908203 9.16855469 -10.23046875 8.3203125 C-9.88628906 7.59585938 -9.54210937 6.87140625 -9.1875 6.125 C-8.85105469 5.40570313 -8.51460937 4.68640625 -8.16796875 3.9453125 C-5.95711665 0.26302372 -4.19265494 0 0 0 Z " fill="#BDC1C9" transform="translate(60,72)"/>
<path d="M0 0 C0.7734375 0.433125 0.7734375 0.433125 1.5625 0.875 C4.62356725 2.28780027 7.74944918 3.1248517 11 4 C11 5.32 11 6.64 11 8 C11.3403125 9.3921875 11.3403125 9.3921875 11.6875 10.8125 C12.10592878 15.08047352 10.90046718 17.19906564 9 21 C7.35 20.67 5.7 20.34 4 20 C4.33 22.97 4.66 25.94 5 29 C5.598125 28.175 6.19625 27.35 6.8125 26.5 C7.8953125 25.2625 7.8953125 25.2625 9 24 C9.99 24 10.98 24 12 24 C12.5497272 29.63470383 10.95047835 32.38987758 8 37 C9.98 37.99 11.96 38.98 14 40 C14.09377123 47.41834582 14.17402193 54.66236293 13 62 C11.515 61.505 11.515 61.505 10 61 C10.33 56.38 10.66 51.76 11 47 C5.39 47 -0.22 47 -6 47 C-5.67 50.63 -5.34 54.26 -5 58 C-5.33 58 -5.66 58 -6 58 C-6.495 60.475 -6.495 60.475 -7 63 C-9.64 63 -12.28 63 -15 63 C-14.67 62.34 -14.34 61.68 -14 61 C-12.02 61.33 -10.04 61.66 -8 62 C-8.0721875 61.41734375 -8.144375 60.8346875 -8.21875 60.234375 C-8.98047565 53.50579844 -9.37923528 46.77046511 -9 40 C-6.95301586 37.95301586 -2.69588759 38.29954307 0 38 C-0.33773437 37.48050781 -0.67546875 36.96101563 -1.0234375 36.42578125 C-7 27.08092486 -7 27.08092486 -7 22 C-4.625 21.875 -4.625 21.875 -2 22 C-1.34 22.66 -0.68 23.32 0 24 C-0.10169161 21.05272465 -0.10169161 21.05272465 -1 18 C-3.45704762 16.76709799 -3.45704762 16.76709799 -6 16 C-7.16461426 12.50615721 -7.13568319 9.66344611 -7 6 C-6 5 -6 5 -3.4375 4.9375 C-2.2309375 4.9684375 -2.2309375 4.9684375 -1 5 C-0.67 3.35 -0.34 1.7 0 0 Z " fill="#B4B8C0" transform="translate(63,108)"/>
<path d="M0 0 C0.33 0 0.66 0 1 0 C1 24.75 1 49.5 1 75 C1.33 68.07 1.66 61.14 2 54 C2.33 54 2.66 54 3 54 C3 61.26 3 68.52 3 76 C4.485 75.01 4.485 75.01 6 74 C6.99 74 7.98 74 9 74 C8.55168186 78.93149957 7.41869634 80.58130366 4 84 C4.08588184 86.66233703 5.05903489 88.09753591 6.4375 90.375 C8.1050576 93.17649677 9.05913298 95.8879014 10 99 C7.98177083 98.96744792 5.96354167 98.93489583 3.9453125 98.90234375 C1.91814596 98.87350758 1.91814596 98.87350758 0 100 C-0.33 95.05 -0.66 90.1 -1 85 C-5.75364596 83.85060958 -5.75364596 83.85060958 -9.6875 84.125 C-10.780625 84.08375 -11.87375 84.0425 -13 84 C-13.66 83.01 -14.32 82.02 -15 81 C-13 79 -13 79 -11.0546875 78.8046875 C-8.02734375 78.90234375 -8.02734375 78.90234375 -5 79 C-5.6412418 76.94464857 -5.6412418 76.94464857 -7 75 C-9.28998397 74.44598049 -9.28998397 74.44598049 -11.875 74.5 C-16.71047976 74.22748019 -16.71047976 74.22748019 -19.625 71.9375 C-20.305625 70.9784375 -20.305625 70.9784375 -21 70 C-20 69 -20 69 -17.71484375 68.90234375 C-16.79832031 68.91394531 -15.88179687 68.92554688 -14.9375 68.9375 C-13.55884766 68.95103516 -13.55884766 68.95103516 -12.15234375 68.96484375 C-11.08693359 68.98224609 -11.08693359 68.98224609 -10 69 C-11.00916823 66.4251788 -11.00916823 66.4251788 -13 64 C-16.44579041 63.32915888 -16.44579041 63.32915888 -20 63 C-22.4375 61.625 -22.4375 61.625 -24 60 C-24 59.01 -24 58.02 -24 57 C-21.36 56.67 -18.72 56.34 -16 56 C-17.51945174 51.92147165 -18.51388121 49.48611879 -21.625 46.375 C-24.18497272 43.81502728 -24.69667151 42.53883241 -25 39 C-23.68 39 -22.36 39 -21 39 C-17.64273049 42.4372045 -15.49403348 45.38207835 -14 50 C-13.401875 49.34 -12.80375 48.68 -12.1875 48 C-10 46 -10 46 -7 46 C-6.75 48.25 -6.75 48.25 -7 51 C-7.680625 51.66 -8.36125 52.32 -9.0625 53 C-9.701875 53.66 -10.34125 54.32 -11 55 C-10.85974801 57.70705512 -10.85974801 57.70705512 -10 60 C-9.401875 59.175 -8.80375 58.35 -8.1875 57.5 C-7.465625 56.675 -6.74375 55.85 -6 55 C-5.01 55 -4.02 55 -3 55 C-3.51659807 59.44274339 -4.68809763 62.21688703 -7 66 C-6.505 66.99 -6.505 66.99 -6 68 C-5.54625 67.175 -5.0925 66.35 -4.625 65.5 C-4.08875 64.675 -3.5525 63.85 -3 63 C-2.34 63 -1.68 63 -1 63 C-0.67 42.21 -0.34 21.42 0 0 Z " fill="#ABB0B8" transform="translate(26,72)"/>
<path d="M0 0 C1.32 0.66 2.64 1.32 4 2 C4 2.99 4 3.98 4 5 C6.475 5.495 6.475 5.495 9 6 C9 9.33333333 9 12.66666667 9 16 C5.25 17.125 5.25 17.125 3 16 C2.67 18.97 2.34 21.94 2 25 C2.99 24.01 3.98 23.02 5 22 C6.32 22 7.64 22 9 22 C8.84482717 29.13795017 5.25790537 33.47472854 1 39 C1.63808594 38.98839844 2.27617187 38.97679687 2.93359375 38.96484375 C3.75988281 38.95582031 4.58617187 38.94679687 5.4375 38.9375 C6.26121094 38.92589844 7.08492187 38.91429687 7.93359375 38.90234375 C10 39 10 39 11 40 C11.07258946 42.18639453 11.08373783 44.37500389 11.0625 46.5625 C11.05347656 47.76003906 11.04445312 48.95757812 11.03515625 50.19140625 C11.02355469 51.11824219 11.01195312 52.04507813 11 53 C9.515 52.505 9.515 52.505 8 52 C7.67 50.68 7.34 49.36 7 48 C1.72 47.67 -3.56 47.34 -9 47 C-9.33 49.97 -9.66 52.94 -10 56 C-10.33 56 -10.66 56 -11 56 C-11.33 50.72 -11.66 45.44 -12 40 C-9.36 39.34 -6.72 38.68 -4 38 C-4.61875 37.525625 -5.2375 37.05125 -5.875 36.5625 C-8.8110621 33.02195453 -9.27544711 29.46172044 -10 25 C-8.68 25 -7.36 25 -6 25 C-4.25 27 -4.25 27 -3 29 C-3 26.36 -3 23.72 -3 21 C-3.598125 20.95875 -4.19625 20.9175 -4.8125 20.875 C-7 20 -7 20 -8.8125 17.5 C-10.30167852 13.11084225 -10.18960055 9.47218254 -9 5 C-8.34 4.34 -7.68 3.68 -7 3 C-4.375 3.375 -4.375 3.375 -2 4 C-1.34 2.68 -0.68 1.36 0 0 Z " fill="#ACB1B9" transform="translate(136,108)"/>
<path d="M0 0 C0.33 0 0.66 0 1 0 C1 13.2 1 26.4 1 40 C-2.465 38.515 -2.465 38.515 -6 37 C-3.97975655 41.25391445 -3.97975655 41.25391445 -1.25 45.0625 C0 47 0 47 -0.20703125 49.359375 C-1.11566089 52.38515645 -2.2969206 53.88671091 -4.4375 56.1875 C-5.36369141 57.19876953 -5.36369141 57.19876953 -6.30859375 58.23046875 C-9.9081895 61.99632758 -9.9081895 61.99632758 -13.125 62.125 C-14.07375 62.08375 -15.0225 62.0425 -16 62 C-15.2829949 55.42745328 -13.9748673 49.1396539 -12.4609375 42.7109375 C-11.60445826 38.99100528 -10.92416391 35.4297808 -10.625 31.62109375 C-10 28 -10 28 -8.1875 26.16015625 C-7.465625 25.79792969 -6.74375 25.43570313 -6 25.0625 C-5.278125 24.68222656 -4.55625 24.30195313 -3.8125 23.91015625 C-3.214375 23.60980469 -2.61625 23.30945313 -2 23 C-0.34920558 21.34920558 -0.77450553 19.36263821 -0.68359375 17.08984375 C-0.64169922 16.10048828 -0.59980469 15.11113281 -0.55664062 14.09179688 C-0.49766602 12.53041992 -0.49766602 12.53041992 -0.4375 10.9375 C-0.39431641 9.89271484 -0.35113281 8.84792969 -0.30664062 7.77148438 C-0.20018775 5.18113116 -0.0981724 2.59067814 0 0 Z " fill="#27313E" transform="translate(172,109)"/>
<path d="M0 0 C1.65 0 3.3 0 5 0 C5 25.74 5 51.48 5 78 C3.35 78 1.7 78 0 78 C0 52.26 0 26.52 0 0 Z " fill="#1F2937" transform="translate(98,93)"/>
<path d="M0 0 C0.99 0.33 1.98 0.66 3 1 C2.67506385 4.5742977 2.36129314 6.55712453 0.0625 9.375 C-2 11 -2 11 -4 11 C-4.66 13.64 -5.32 16.28 -6 19 C-3.36 19 -0.72 19 2 19 C1.6875 20.875 1.6875 20.875 1 23 C-2.44450737 25.29633824 -4.93812283 25.54016485 -9 26 C-9.99 28.475 -9.99 28.475 -11 31 C-8.03 31 -5.06 31 -2 31 C-1.67 31.99 -1.34 32.98 -1 34 C-4.11910856 35.79275866 -6.67682428 36.34290718 -10.25 36.625 C-11.14203125 36.69976562 -12.0340625 36.77453125 -12.953125 36.8515625 C-13.62859375 36.90054688 -14.3040625 36.94953125 -15 37 C-15.495 39.475 -15.495 39.475 -16 42 C-16.66 42 -17.32 42 -18 42 C-20.7343066 39.2656934 -20.95340665 37.23006445 -21.09765625 33.421875 C-21.08025391 32.09929687 -21.08025391 32.09929687 -21.0625 30.75 C-21.05347656 29.85796875 -21.04445312 28.9659375 -21.03515625 28.046875 C-21.02355469 27.37140625 -21.01195312 26.6959375 -21 26 C-19.125 26.3125 -19.125 26.3125 -17 27 C-16.34 27.99 -15.68 28.98 -15 30 C-15.94420427 27.57204617 -16.87641071 25.22658036 -18.125 22.9375 C-19 21 -19 21 -19 17 C-16.11424181 17.39803561 -15.17810487 17.79009069 -13.25 20.0625 C-12.8375 20.701875 -12.425 21.34125 -12 22 C-11.34 20.68 -10.68 19.36 -10 18 C-10.825 17.0925 -11.65 16.185 -12.5 15.25 C-15.03294997 12.46375503 -15 12.12741739 -15 8 C-11.68273845 8.57194165 -10.27364177 9.57000464 -8 12 C-7.75765625 11.46890625 -7.5153125 10.9378125 -7.265625 10.390625 C-5.30587441 6.26007376 -3.53371028 3.02889453 0 0 Z " fill="#BABEC6" transform="translate(197,110)"/>
<path d="M0 0 C4 1 4 1 5 2 C5.09492722 4.34253782 5.12559791 6.65546104 5.11352539 8.99829102 C5.11367142 9.72995483 5.11381744 10.46161865 5.1139679 11.2154541 C5.11326867 13.64496784 5.10547585 16.07440583 5.09765625 18.50390625 C5.0957921 20.18399514 5.09436819 21.86408457 5.09336853 23.54417419 C5.08954307 27.97473643 5.07971256 32.4052661 5.06866455 36.83581543 C5.05845103 41.35342976 5.05387104 45.87104934 5.04882812 50.38867188 C5.03809031 59.25912893 5.02101356 68.12956176 5 77 C3.35 77 1.7 77 0 77 C0 51.59 0 26.18 0 0 Z " fill="#242E3B" transform="translate(106,94)"/>
<path d="M0 0 C0.99 0 1.98 0 3 0 C3 25.41 3 50.82 3 77 C1.35 77 -0.3 77 -2 77 C-2.04627664 67.2557762 -2.08184536 57.51157841 -2.10362434 47.76726723 C-2.11407551 43.2429174 -2.1282589 38.71864259 -2.15087891 34.19433594 C-2.17255993 29.83068476 -2.18455858 25.46710587 -2.18975449 21.103405 C-2.19345879 19.43597653 -2.20069207 17.76855215 -2.21146011 16.10115433 C-2.2259122 13.77128705 -2.22798061 11.44172106 -2.22705078 9.11181641 C-2.23424133 8.41770157 -2.24143188 7.72358673 -2.24884033 7.00843811 C-2.22810432 2.22810432 -2.22810432 2.22810432 0 0 Z " fill="#2A3441" transform="translate(92,94)"/>
<path d="M0 0 C0.33 0 0.66 0 1 0 C1.33 26.07 1.66 52.14 2 79 C3.485 78.01 3.485 78.01 5 77 C5 77.99 5 78.98 5 80 C5.99 79.505 5.99 79.505 7 79 C8.54613014 79.08651631 10.08909387 79.24002636 11.625 79.4375 C12.44226563 79.53933594 13.25953125 79.64117187 14.1015625 79.74609375 C15.04128906 79.87177734 15.04128906 79.87177734 16 80 C16 80.99 16 81.98 16 83 C11.60563789 83.85743651 7.47427924 84.08948558 3 84 C1.5192152 86.9615696 1.64685963 89.83506295 1.4375 93.125 C1.35371094 94.40632813 1.26992187 95.68765625 1.18359375 97.0078125 C1.12300781 97.99523437 1.06242188 98.98265625 1 100 C0.34 99.67 -0.32 99.34 -1 99 C-2.37342831 98.9310528 -3.75002102 98.91532292 -5.125 98.9375 C-6.40375 98.958125 -7.6825 98.97875 -9 99 C-9.33 98.01 -9.66 97.02 -10 96 C-8.53125 94.16796875 -8.53125 94.16796875 -6.5 92.1875 C-3.49481697 89.03526261 -3.49481697 89.03526261 -2.8125 84.8125 C-4.12243932 81.71001213 -5.84671229 79.57005307 -8 77 C-8 76.01 -8 75.02 -8 74 C-3.125 74.875 -3.125 74.875 -2 76 C-0.82945265 72.48835795 -0.83933774 69.66503216 -0.79467773 65.95825195 C-0.78477814 65.24580322 -0.77487854 64.53335449 -0.76467896 63.79931641 C-0.733105 61.44567176 -0.70832281 59.09200694 -0.68359375 56.73828125 C-0.66302067 55.10588559 -0.64202411 53.47349521 -0.62062073 51.84111023 C-0.56543656 47.54544354 -0.51601117 43.24972906 -0.46777344 38.95397949 C-0.41753173 34.57018788 -0.3618596 30.18646562 -0.30664062 25.80273438 C-0.19910375 17.20188157 -0.09764886 8.60097072 0 0 Z " fill="#B4B9C1" transform="translate(174,72)"/>
<path d="M0 0 C5.24088203 1.59594639 8.99025571 4.93748975 13.1875 8.3125 C19.50533328 13.31252293 25.88967057 18.17972719 32.4375 22.875 C33.19337402 23.41721191 33.94924805 23.95942383 34.72802734 24.51806641 C36.17118656 25.55125526 37.61500065 26.5835302 39.05957031 27.61474609 C47.85295365 33.89225704 56.48108241 40.35660008 65 47 C65.87403976 47.55979553 66.74807953 48.11959106 67.64860535 48.6963501 C70 51 70 51 70.60127258 54.25238037 C70.59016953 55.54033508 70.57906647 56.82828979 70.56762695 58.15527344 C70.56835709 58.86786819 70.56908722 59.58046295 70.56983948 60.31465149 C70.56636345 62.66367443 70.52750664 65.01069975 70.48828125 67.359375 C70.47895305 68.99032508 70.47183697 70.62128919 70.46684265 72.2522583 C70.44777302 76.54012899 70.39867346 80.82714968 70.34332275 85.11468506 C70.29212895 89.49170432 70.26932839 93.86886125 70.24414062 98.24609375 C70.19055384 106.83111877 70.10524255 115.41545358 70 124 C69.67 124 69.34 124 69 124 C68.99937057 123.11574341 68.99874115 122.23148682 68.99809265 121.32043457 C68.98243244 112.96304636 68.91416543 104.60806832 68.78763103 96.25159454 C68.72441584 91.95571839 68.68115141 87.66161514 68.68432617 83.36523438 C68.68664529 79.2139739 68.63545445 75.06642818 68.54801369 70.91612244 C68.52399003 69.33757256 68.51885059 67.75861232 68.53342247 66.1799469 C68.76768226 57.0803208 68.76768226 57.0803208 64.61148071 49.32861328 C61.82639916 47.29630602 59.0218617 45.6508674 56 44 C54.45274926 42.8042576 52.92705081 41.57939507 51.4375 40.3125 C46.03236254 35.93321797 40.38983064 31.90574386 34.74047852 27.85107422 C29.47873508 24.07355243 24.26436616 20.24803379 19.1015625 16.3359375 C16.65009397 14.48961737 14.18625476 12.66549407 11.7109375 10.8515625 C10.60322998 10.03473999 10.60322998 10.03473999 9.47314453 9.20141602 C8.01164617 8.1239903 6.54656398 7.05140606 5.07763672 5.98413086 C3.34851442 4.70407366 1.66893385 3.35759721 0 2 C0 1.34 0 0.68 0 0 Z " fill="#B3B8C0" transform="translate(104,21)"/>
<path d="M0 0 C5.61 0 11.22 0 17 0 C17.06806353 5.64927335 17.11031666 10.4484167 16 16 C11.05 16 6.1 16 1 16 C0.67 10.72 0.34 5.44 0 0 Z " fill="#27313E" transform="translate(57,155)"/>
<path d="M0 0 C4.77375186 1.87540252 7.2027298 5.20614205 9.25 9.8125 C9.4975 10.534375 9.745 11.25625 10 12 C10.598125 11.34 11.19625 10.68 11.8125 10 C14 8 14 8 17 8 C17.25 10.25 17.25 10.25 17 13 C16.319375 13.66 15.63875 14.32 14.9375 15 C14.298125 15.66 13.65875 16.32 13 17 C13.14025199 19.70705512 13.14025199 19.70705512 14 22 C14.598125 21.175 15.19625 20.35 15.8125 19.5 C16.8953125 18.2625 16.8953125 18.2625 18 17 C18.99 17 19.98 17 21 17 C20.48363204 21.44076448 19.34207587 24.23231273 17 28 C17 28.99 17 29.98 17 31 C16.01 31 15.02 31 14 31 C13.38125 29.7934375 13.38125 29.7934375 12.75 28.5625 C12.1725 27.716875 11.595 26.87125 11 26 C7.55420959 25.32915888 7.55420959 25.32915888 4 25 C1.5625 23.625 1.5625 23.625 0 22 C0 21.01 0 20.02 0 19 C3.96 18.505 3.96 18.505 8 18 C6.48054826 13.92147165 5.48611879 11.48611879 2.375 8.375 C-0.18104168 5.81895832 -0.80219461 4.56049706 -1 1 C-0.67 0.67 -0.34 0.34 0 0 Z " fill="#BCC0C8" transform="translate(2,110)"/>
<path d="M0 0 C2.64590014 -0.02684679 5.29153096 -0.04676357 7.9375 -0.0625 C8.69224609 -0.07087891 9.44699219 -0.07925781 10.22460938 -0.08789062 C12.14994313 -0.09652441 14.07535581 -0.05224333 16 0 C17 1 17 1 17.1328125 2.85546875 C17.13023437 3.62503906 17.12765625 4.39460937 17.125 5.1875 C17.12886719 6.32251953 17.12886719 6.32251953 17.1328125 7.48046875 C16.9802914 10.37388369 16.51938767 13.15161204 16 16 C13.68756208 16.02685412 11.3750373 16.04632841 9.0625 16.0625 C7.77472656 16.07410156 6.48695313 16.08570313 5.16015625 16.09765625 C2 16 2 16 1 15 C0.76346477 12.47403741 0.57826308 9.96892793 0.4375 7.4375 C0.39431641 6.72658203 0.35113281 6.01566406 0.30664062 5.28320312 C0.20028223 3.52238088 0.09961154 1.7612168 0 0 Z " fill="#26303E" transform="translate(127,155)"/>
<path d="M0 0 C0.66 0 1.32 0 2 0 C3.44957456 2.89914911 3.11932924 5.414283 3.11352539 8.65283203 C3.11367142 9.33587402 3.11381744 10.01891602 3.1139679 10.72265625 C3.11327023 12.9844071 3.10548465 15.246076 3.09765625 17.5078125 C3.09579155 19.07437088 3.09436789 20.64092984 3.09336853 22.20748901 C3.08954743 26.33389898 3.0797206 30.46027384 3.06866455 34.58666992 C3.0584417 38.79605637 3.05386903 43.00544847 3.04882812 47.21484375 C3.03809798 55.47657862 3.02102642 63.73828495 3 72 C2.01 72 1.02 72 0 72 C0 48.24 0 24.48 0 0 Z " fill="#39414E" transform="translate(113,99)"/>
<path d="M0 0 C0.66 0 1.32 0 2 0 C2 23.43 2 46.86 2 71 C1.01 71 0.02 71 -1 71 C-1.02312545 61.89040835 -1.04091612 52.78082674 -1.05181217 43.6712122 C-1.05704056 39.44168629 -1.0641374 35.2121804 -1.07543945 30.98266602 C-1.08626991 26.90431457 -1.09227717 22.82598243 -1.09487724 18.74761772 C-1.09673121 17.18822361 -1.10035127 15.6288306 -1.10573006 14.06944466 C-1.11294262 11.89270838 -1.11399085 9.71605286 -1.11352539 7.53930664 C-1.115746 6.29798477 -1.11796661 5.0566629 -1.12025452 3.77772522 C-1 1 -1 1 0 0 Z " fill="#2A3441" transform="translate(86,100)"/>
<path d="M0 0 C0.66 0.33 1.32 0.66 2 1 C1.67624893 1.55905533 1.35249786 2.11811066 1.01893616 2.69410706 C-0.12574934 5.28457575 -0.26881976 7.07225988 -0.30297852 9.89428711 C-0.31962051 10.86728256 -0.33626251 11.84027802 -0.35340881 12.84275818 C-0.36182297 13.89367142 -0.37023712 14.94458466 -0.37890625 16.02734375 C-0.39590073 17.12607315 -0.4128952 18.22480255 -0.43040466 19.35682678 C-0.48352303 22.88365867 -0.52369391 26.41048405 -0.5625 29.9375 C-0.62144045 34.53002368 -0.6860322 39.12244384 -0.75390625 43.71484375 C-0.76982819 44.83353851 -0.78575012 45.95223328 -0.80215454 47.10482788 C-0.9676779 57.41637909 -1.42512407 67.70399275 -2 78 C-2.99 78.495 -2.99 78.495 -4 79 C-3.93887563 68.99480559 -3.86183279 58.9898739 -3.76428509 48.98496437 C-3.71949701 44.33960315 -3.68025982 39.69433135 -3.65356445 35.04882812 C-3.62761521 30.56829046 -3.5872732 26.08809536 -3.53681374 21.60776901 C-3.52008804 19.89573797 -3.50860941 18.1836476 -3.50238609 16.47154617 C-3.4928065 14.07913274 -3.46482331 11.68760706 -3.43237305 9.29541016 C-3.43380814 8.58259384 -3.43524323 7.86977753 -3.4367218 7.13536072 C-3.39872742 5.16372681 -3.39872742 5.16372681 -3 2 C-2.01 1.34 -1.02 0.68 0 0 Z " fill="#C3C7CE" transform="translate(30,69)"/>
<path d="M0 0 C0.33 0 0.66 0 1 0 C1.33859902 6.17096719 0.08339806 11.49333809 -1.5 17.4375 C-1.73847656 18.35982422 -1.97695312 19.28214844 -2.22265625 20.23242188 C-2.80761228 22.49035216 -3.40020296 24.74597547 -4 27 C-4.99 26.67 -5.98 26.34 -7 26 C-6.731875 24.824375 -6.46375 23.64875 -6.1875 22.4375 C-5.49059703 19.34344852 -4.85830289 16.24983881 -4.26953125 13.1328125 C-4.14231689 12.46193604 -4.01510254 11.79105957 -3.8840332 11.09985352 C-3.51102099 9.12096799 -3.14601255 7.14057901 -2.78125 5.16015625 C-2 2 -2 2 0 0 Z " fill="#BEC2CA" transform="translate(160,144)"/>
<path d="M0 0 C0 1.32 0 2.64 0 4 C-6.27 4 -12.54 4 -19 4 C-19 3.01 -19 2.02 -19 1 C-12.65758005 -0.15316726 -6.43311296 -0.09507063 0 0 Z " fill="#4A535F" transform="translate(75,149)"/>
<path d="M0 0 C3.25 0 3.25 0 7 1 C9.2336248 3.92881638 11 7.26770676 11 11 C11.66 11.33 12.32 11.66 13 12 C12.01 12.33 11.02 12.66 10 13 C8.50855895 11.78575607 7.03222597 10.55293955 5.5625 9.3125 C4.73878906 8.62800781 3.91507813 7.94351563 3.06640625 7.23828125 C0.77822056 4.75977388 0.31869484 3.30863187 0 0 Z " fill="#B9BEC6" transform="translate(141,72)"/>
<path d="M0 0 C0.66 0.33 1.32 0.66 2 1 C2 1.66 2 2.32 2 3 C0.217871 4.44074715 -1.62660276 5.80510649 -3.5 7.125 C-5.03140625 8.21167969 -5.03140625 8.21167969 -6.59375 9.3203125 C-7.3878125 9.87460937 -8.181875 10.42890625 -9 11 C-9.99 10.34 -10.98 9.68 -12 9 C-8.04 6.03 -4.08 3.06 0 0 Z " fill="#AFB4BC" transform="translate(64,44)"/>
<path d="M0 0 C1.1725131 0.95117134 2.33787015 1.91117009 3.5 2.875 C4.47453125 3.67550781 4.47453125 3.67550781 5.46875 4.4921875 C5.9740625 4.98976562 6.479375 5.48734375 7 6 C7 6.66 7 7.32 7 8 C4.69 8 2.38 8 0 8 C0 5.36 0 2.72 0 0 Z " fill="#28313F" transform="translate(29,163)"/>
<path d="M0 0 C0.33 0 0.66 0 1 0 C1 2.64 1 5.28 1 8 C-1.31 8 -3.62 8 -6 8 C-5.02471263 6.66382648 -4.04466681 5.3311249 -3.0625 4 C-2.24458984 2.88625 -2.24458984 2.88625 -1.41015625 1.75 C-0.94480469 1.1725 -0.47945312 0.595 0 0 Z " fill="#2B3542" transform="translate(171,163)"/>
<path d="M0 0 C0.33 0 0.66 0 1 0 C1.28571429 7.42857143 1.28571429 7.42857143 -1 11 C-1.66 11 -2.32 11 -3 11 C-2.88590407 9.54077307 -2.75834456 8.08259402 -2.625 6.625 C-2.55539063 5.81289062 -2.48578125 5.00078125 -2.4140625 4.1640625 C-2 2 -2 2 0 0 Z " fill="#B0B5BD" transform="translate(160,144)"/>
<path d="M0 0 C0.93065133 2.60582371 1.14917407 3.64198224 0.0625 6.25 C-0.4634375 7.11625 -0.4634375 7.11625 -1 8 C-1.66 7.67 -2.32 7.34 -3 7 C-2.625 4.0625 -2.625 4.0625 -2 1 C-1.34 0.67 -0.68 0.34 0 0 Z " fill="#AEB3BB" transform="translate(156,163)"/>
<path d="M0 0 C2.97 0.495 2.97 0.495 6 1 C3.82575883 3.50037734 2.26954202 4.43628586 -1 5 C-0.67 3.35 -0.34 1.7 0 0 Z " fill="#313A48" transform="translate(47,90)"/>
<path d="M0 0 C0.66 0.33 1.32 0.66 2 1 C0.515 2.485 0.515 2.485 -1 4 C-0.67 4.66 -0.34 5.32 0 6 C-1.65 6.66 -3.3 7.32 -5 8 C-3.8141763 4.62496331 -2.72426311 2.35277269 0 0 Z " fill="#B0B5BD" transform="translate(88,94)"/>
</svg>
